<?xml version="1.0" encoding="utf-8"?>
<!-- Generator: Adobe Illustrator 26.5.0, SVG Export Plug-In . SVG Version: 6.00 Build 0)  -->
<svg version="1.1" id="Capa_1" xmlns="http://www.w3.org/2000/svg" xmlns:xlink="http://www.w3.org/1999/xlink" x="0px" y="0px"
	 viewBox="0 0 286.3 100" style="enable-background:new 0 0 286.3 100;" xml:space="preserve">
<style type="text/css">
	.st0{fill:none;}
	.st1{fill:url(#SVGID_1_);}
	.st2{fill:url(#SVGID_00000065045323038145229820000000652450166208785832_);}
	.st3{fill:#747A26;}
	.st4{fill:#361516;}
	.st5{fill:#7E1B1E;}
</style>
<path class="st0" d="M35.3,28.9c0.2,0,0.5,0.1,0.7,0.1h28.4c0.2,0,0.3,0,0.5,0c0,0,0,0,0,0c0.9,0,1.5-0.9,1.5-1.9c0-0.8,0-1.5,0-2.3
	c0-1.7-0.6-2.4-2-2.4H50.2l-3,0c-3.8,0-7.6,0-11.4,0c-0.1,0-0.2,0-0.4,0c-0.9,0.1-1.5,1-1.4,2.1c0,0.9,0,1.8,0,2.7
	C34,28.1,34.6,28.8,35.3,28.9z"/>
<g>
	<g>
		<path class="st4" d="M177,63.5h-2.7l0.6,1.4l1.9,4.7c-1-0.3-1.8-0.9-2.5-1.5c-0.5-1.3-1.2-2.3-1.9-3.1c-0.6-1.5-0.8-3.2-0.8-4.9
			v-1.7h4.8v1.7C176.5,61.5,176.7,62.6,177,63.5z"/>
		<path class="st4" d="M112.4,31.5c1.1,6.2,4.8,25.7,5.6,32.7h0.1c0.5-6.2,4.7-26,5.8-32.7h4.9l-8.1,38.2h-5.5l-7.9-38.2H112.4z"/>
		<path class="st4" d="M15.1,65.6h3.4c5.6,0,7-2.7,7-9.2v-3.5c0-5.6-2.1-8.1-6.9-8.1h-3.5V65.6z M18.7,40.8c4.5,0,5.9-2,5.9-8v-2.3
			c0-4.7-1.7-7-6.2-7h-3.3v17.3H18.7z M10.3,19.4h8.4c7.6,0,10.4,4.1,10.4,10.8v2.3c0,7.1-2,9.3-4.7,10.2c2.9,0.9,5.7,3.4,5.7,10.1
			v3.7c0,8.9-2.9,13.2-11.4,13.2h-8.5V19.4z"/>
		<path class="st4" d="M35.9,31.5h4.7v38.2h-4.7V31.5z M35.9,17.1h4.8v7.7h-4.8V17.1z"/>
		<path class="st4" d="M51.6,42v16.8c0,4.4,1.5,7.2,4.8,7.2c3.1,0,4.8-2.1,4.8-7.2V41.9c0-3.9-1.4-6.8-4.7-6.8
			C53.1,35.2,51.6,37.7,51.6,42L51.6,42z M66.2,42.1v16.3c0,8.4-3.9,11.9-9.8,11.9c-5.9,0-9.6-3.5-9.6-11.7V42
			c0-7.2,3.7-11.1,9.8-11.1C62.9,30.9,66.2,35,66.2,42.1L66.2,42.1z"/>
		<path class="st4" d="M76.2,58c0,5.1,1.4,7.8,4.5,7.8c4.2,0,5.2-4.1,5.2-9.5V43.5c0-4.2-0.5-8.2-5-8.2c-3.2,0-4.7,2.7-4.7,7.1V58z
			 M90.7,17.1V60c0,4.2,0,7.5,0.1,9.6h-4.6c-0.1-0.7-0.2-2.8-0.2-3.8c-0.9,2.3-2.6,4.4-6.6,4.4c-6.3,0-8-5-8-12.3V42.2
			c0-6.8,2.7-11.3,8.6-11.3c3.4,0,5.2,1.5,5.9,2.9V17.1H90.7z"/>
		<path class="st4" d="M97.9,31.5h4.7v38.2h-4.7V31.5z M97.9,17.1h4.8v7.7h-4.8V17.1z"/>
		<path class="st4" d="M141.6,30.9c-7.5,0-9.5,6-9.5,12v14.6c0,2.3,0.2,4.3,0.6,6h4l0.2,0.8c0.3-0.2,0.6-0.4,0.9-0.6
			c-0.8-1.6-1-3.8-1-5.9v-6.4h14v-8.6C150.7,36.3,148.7,30.9,141.6,30.9z M146.1,47.4h-9.4v-4.9c0-4.2,0.9-7.5,4.7-7.5
			c4.2,0,4.7,3.9,4.7,7.5V47.4z M146,59.2c0,2.3-0.3,4.3-1.3,5.6c0.1,0.1,0.2,0.2,0.3,0.3c1-1,2.5-2,4.9-2c0.2,0,0.3,0,0.5,0
			c0.3-1.3,0.3-2.7,0.3-3.9v-0.3H146V59.2z M138.2,69.8c0.2,0.1,0.5,0.1,0.8,0.2c-0.2-0.2-0.4-0.2-0.6-0.2
			C138.3,69.8,138.3,69.8,138.2,69.8z"/>
		<path class="st4" d="M169.2,31v5.9c-4.8,0-7.9,3.2-7.9,9.8v18.2c-1.4,1.1-2.4,2.7-2.8,4.8h-1.9V44.5c0-6.2,0-9.8-0.1-13h4.6
			c0.1,1.1,0.1,3.2,0.1,5.9C162.6,32.8,165.9,31,169.2,31z"/>
		<path class="st4" d="M190.1,59.7c0,1.4-0.1,2.7-0.4,3.8h-3.4l-0.2,0.7c-0.5,1.5-0.9,2.8-1.4,4c-0.1,0.4-0.3,0.8-0.4,1.2
			c-0.3-1.1-0.8-2.4-1.2-3.8c1.6-0.8,2.2-2.5,2.2-5.3c0-4-1.2-5.7-5.5-8.6c-5-3.4-7.4-6-7.4-11.3c0-5.5,2.5-9.6,8.7-9.6
			c6.6,0,8.6,4.4,8.6,9.8v1.8h-4.7v-2c0-3.4-0.9-5.4-3.9-5.4c-2.7,0-3.8,1.9-3.8,5c0,3.2,1,4.6,4.9,7.2
			C187.4,50.8,190.1,53.5,190.1,59.7z"/>
		<path class="st4" d="M220.9,17.1v16.7c-0.8-1.4-2.5-2.9-5.9-2.9c-5.9,0-8.6,4.5-8.6,11.3V58c0,2.4,0.2,4.5,0.6,6.3
			c1.4-0.9,3.1-1.2,4.7-1.2h0.2c-0.5-1.2-0.8-2.9-0.8-5V42.4c0-4.3,1.4-7.1,4.7-7.1c4.6,0,5,4,5,8.2v12.8c0,4.4-0.6,7.9-3.1,9.1
			c0.8,0.9,1.3,2,1.6,3.1c0.8-0.7,1.3-1.6,1.6-2.5c0,1,0.2,3.1,0.2,3.8h0.3c0.4-2.9,1.8-4.9,4.2-5.8V17.1H220.9z M211.6,69.5
			c-0.1,0-0.3,0-0.5,0.1c0.4,0.2,0.8,0.3,1.3,0.4C212.2,69.5,211.9,69.5,211.6,69.5z"/>
		<path class="st4" d="M241.1,30.9c-6.8,0-8.9,4.5-8.9,9.7v1h4.7v-1.1c0-3.1,0.9-5.5,4-5.5c3.2,0,3.8,2.3,3.8,5.9v6.3h-1.8
			c-6.8,0-11.9,3.2-11.9,11.7v0.7c0,1.3,0.1,2.5,0.3,3.6c3.8,0.5,5.9,2.9,6.2,7c0.3,0.1,0.7,0.1,1,0.1c0.6,0,1.2-0.1,1.7-0.2
			c0-2.1,0-3.4,0-4.2c-0.1,0-0.3,0-0.4,0c-3.2,0-4.2-3-4.2-6.5v-0.7c0-5.7,2.6-7.6,7.1-7.6h2V57c0,2.8-0.3,5-1,6.5h3.3l0.1,0.8
			c0.6-0.5,1.4-0.8,2.3-1V40.6C249.5,35.1,247.5,30.9,241.1,30.9z"/>
		<path class="st4" d="M275,60V17.1h-4.8v16.7c-0.8-1.4-2.6-2.9-6-2.9c-5.9,0-8.6,4.5-8.6,11.3V58c0,5.7,1,9.9,4.4,11.6
			c0.3-2,1.1-3.6,2.3-4.6c-1.3-1.2-1.9-3.4-1.9-6.8V42.4c0-4.3,1.4-7.1,4.7-7.1c4.6,0,5,4,5,8.2v12.8c0,2.7-0.2,5.1-1,6.8
			c2.8,0.2,4.8,1.4,5.9,3.5C275,64.8,275,62.6,275,60z"/>
	</g>
	<g>
		<g>
			<rect x="195" y="26.2" class="st5" width="5.2" height="64.5"/>
			<rect x="195.1" y="17.1" class="st5" width="5.2" height="5.6"/>
		</g>
		<path class="st5" d="M130.9,72.1c0-5.2,0-6.4-0.1-7.6h5c0.2,0.8,0.2,1.4,0.2,2.3c0.9-1.8,2.5-2.7,4.6-2.7c2.1,0,3.5,1,4.2,2.8
			c0.9-1.4,2.3-2.8,5-2.8c2.9,0,5.2,1.5,5.2,6.6v20h-5.2V71.6c0-1.8-0.5-2.8-2-2.8c-1.8,0-2.3,1.4-2.3,4v17.9h-5.3v-19
			c0-2.4-0.7-2.9-1.9-2.9c-1.9,0-2.3,1.4-2.3,3.9v18h-5.2V72.1z"/>
		<path class="st5" d="M169.1,74.9v-2.7c0-2.4-0.6-3.7-2.4-3.7c-1.7,0-2.5,1.2-2.5,3.7v2.7H169.1z M164.1,79v3.8
			c0,2,0.5,3.8,2.5,3.8c2.1,0,2.3-1.9,2.3-3.7v-0.1h5.1V83c0,2.7-0.6,8.1-7.3,8.1c-6.7,0-7.6-4.2-7.6-9.4v-8.6c0-3.6,1.1-9,7.6-9
			c5.6,0,7.4,3.8,7.4,9v6H164.1z"/>
		<path class="st5" d="M181.6,64.5c1.3,3.9,2.3,6.8,2.7,8.1h0.1c0.5-1.9,1.6-4.6,2.7-8.1h5.4l-5.3,12.1l5.4,14.1h-5.6
			c-1.7-4.8-2.5-8-2.8-9.2h-0.1c-0.5,1.4-1.5,4.8-2.8,9.2h-5.5l5.4-13.5l-5.2-12.7H181.6z"/>
		<path class="st5" d="M218.8,82v0.4c0,4.8-1.2,8.8-7.3,8.8c-6,0-7.1-4-7.1-9.5v-9c0-4.3,1.4-8.6,7.4-8.6c6.4,0,7,4.7,7,7.9v1h-5.1
			v-1.1c0-2-0.4-3.4-2-3.4c-1.5,0-2.1,1.2-2.1,3.4v11.3c0,1.8,0.4,3.4,2.1,3.4c1.7,0,2-1.3,2-3.4V82H218.8z"/>
		<path class="st5" d="M231.5,78.8h-0.9c-2.4,0-3.9,0.9-3.9,4.2v0.4c0,1.8,0.7,3.1,2.3,3.1c1.8,0,2.5-1.2,2.5-4.7V78.8z M236.5,85.4
			c0,1.7,0.1,4.4,0.1,5.4h-4.8c-0.1-0.5-0.3-1.6-0.3-1.9c-0.9,1.6-2.3,2.3-4.4,2.3c-3.9,0-5.5-3.6-5.5-7.6v-0.5
			c0-6.5,4.4-8.2,9.1-8.2h0.6v-3.3c0-2-0.3-3.2-1.8-3.2c-1.6,0-1.9,1.2-1.9,2.8v0.4h-5.1v-0.3c0-3.8,1.5-7.2,7.2-7.2
			c5,0,6.8,2.8,6.8,7V85.4z"/>
		<path class="st5" d="M241.3,72.6c0-5.3,0-6.9-0.1-8.1h5c0.1,0.6,0.2,1.7,0.2,2.4c0.8-1.5,2.2-2.8,4.9-2.8c3.2,0,5.4,2,5.4,6.9
			v19.7h-5.2V72c0-2.4-0.8-3.2-2.3-3.2c-1.8,0-2.6,1-2.6,4.6v17.4h-5.2V72.6z"/>
		<path class="st5" d="M269.9,78.8H269c-2.4,0-3.9,0.9-3.9,4.2v0.4c0,1.8,0.7,3.1,2.3,3.1c1.8,0,2.5-1.2,2.5-4.7V78.8z M275,85.4
			c0,1.7,0.1,4.4,0.1,5.4h-4.8c-0.1-0.5-0.3-1.6-0.3-1.9c-0.9,1.6-2.3,2.3-4.4,2.3c-3.9,0-5.5-3.6-5.5-7.6v-0.5
			c0-6.5,4.4-8.2,9.1-8.2h0.6v-3.3c0-2-0.3-3.2-1.8-3.2c-1.6,0-1.9,1.2-1.9,2.8v0.4h-5.1v-0.3c0-3.8,1.5-7.2,7.2-7.2
			c5,0,6.8,2.8,6.8,7V85.4z"/>
	</g>
</g>
</svg>
