<?xml version="1.0" encoding="utf-8"?>
<!-- Generator: Adobe Illustrator 26.5.0, SVG Export Plug-In . SVG Version: 6.00 Build 0)  -->
<svg version="1.1" id="Capa_1" xmlns="http://www.w3.org/2000/svg" xmlns:xlink="http://www.w3.org/1999/xlink" x="0px" y="0px"
	 viewBox="0 0 183.9 100" style="enable-background:new 0 0 183.9 100;" xml:space="preserve">
<style type="text/css">
	.st0{fill:none;}
	.st1{fill:url(#SVGID_1_);}
	.st2{fill:url(#SVGID_00000159431044634009689140000012776470821989991312_);}
	.st3{fill:#747A26;}
	.st4{fill:#231F20;}
	.st5{fill:#961B1E;}
	.st6{fill:#FFD300;}
	.st7{fill:none;stroke:#000000;stroke-width:1.1063;}
	.st8{fill:#FFFFFF;}
	.st9{fill:#333333;}
</style>
<path class="st0" d="M35.3,28.9c0.2,0,0.5,0.1,0.7,0.1h28.4c0.2,0,0.3,0,0.5,0c0,0,0,0,0,0c0.9,0,1.5-0.9,1.5-1.9c0-0.8,0-1.5,0-2.3
	c0-1.7-0.6-2.4-2-2.4H50.2l-3,0c-3.8,0-7.6,0-11.4,0c-0.1,0-0.2,0-0.4,0c-0.9,0.1-1.5,1-1.4,2.1c0,0.9,0,1.8,0,2.7
	C34,28.1,34.6,28.8,35.3,28.9z"/>
<g>
	<g>
		<g>
			<path class="st4" d="M46.7,9.5c3.1,0,5.6,0.8,7.4,2.5c1.9,1.8,2.9,4,2.9,6.8c0,1.7-0.5,3.3-1.4,4.8c-1.8,2.9-4.8,4.3-8.9,4.3
				c-3.1,0-5.5-0.8-7.3-2.5c-1-0.9-1.7-2-2.2-3.2c-0.4-1.1-0.7-2.3-0.7-3.5c0-1.8,0.5-3.4,1.4-4.9C39.7,11,42.6,9.6,46.7,9.5z
				 M46.8,12.6c-1.7,0-3.1,0.5-4.2,1.5c-1.3,1.2-2,2.7-2,4.7c0,1.9,0.7,3.5,2,4.7c1.1,1,2.6,1.5,4.3,1.5c1.7,0,3.1-0.5,4.3-1.5
				c0.7-0.6,1.2-1.3,1.5-2.2c0.3-0.8,0.5-1.6,0.5-2.4c0-2-0.7-3.6-2-4.8C49.9,13.1,48.5,12.6,46.8,12.6z"/>
			<path class="st4" d="M80.9,11.4l-2.1,4.2l-0.4-0.2c0-0.1,0-0.2,0-0.2c0-0.3-0.3-0.6-0.8-1c-1.5-1.1-3.4-1.6-5.4-1.6
				c-0.9,0-1.7,0.1-2.4,0.3c-0.5,0.2-0.9,0.4-1.2,0.8c-0.3,0.3-0.5,0.7-0.5,1.1c0,0.7,0.4,1.1,1.2,1.4c0.4,0.1,1.3,0.3,2.7,0.4
				l2,0.2c1.2,0.1,2.2,0.3,3,0.5c0.8,0.2,1.4,0.5,2,1c0.6,0.4,1.1,1,1.4,1.7c0.3,0.7,0.5,1.4,0.5,2.2c0,1.3-0.4,2.4-1.2,3.3
				c-0.7,0.9-1.9,1.5-3.4,2c-1.1,0.3-2.4,0.5-3.7,0.5c-2.4,0-4.7-0.6-7-1.7c-0.5-0.2-0.8-0.3-0.9-0.3c-0.1,0-0.3,0.1-0.5,0.3
				L63.8,26l1.9-4.4l0.4,0.2c0,0.1,0,0.1,0,0.2c0,0.4,0.2,0.8,0.6,1.1c0.6,0.5,1.4,0.9,2.6,1.3c1.2,0.4,2.3,0.5,3.4,0.5
				c1.2,0,2.1-0.2,3-0.6c0.5-0.2,0.8-0.5,1.1-0.9s0.4-0.7,0.4-1.1c0-0.6-0.3-1-1-1.3c-0.4-0.2-1.3-0.3-2.7-0.5l-2-0.2
				c-1.3-0.1-2.3-0.3-2.9-0.4c-0.6-0.1-1.1-0.3-1.7-0.6c-0.8-0.4-1.4-1-1.9-1.8c-0.4-0.7-0.6-1.5-0.6-2.4c0-1.5,0.5-2.7,1.6-3.7
				c1.4-1.3,3.4-1.9,6.1-1.9c1.1,0,2.2,0.1,3.2,0.3c1,0.2,2.2,0.7,3.7,1.3c0.5,0.2,0.8,0.3,0.9,0.3c0.2,0,0.4-0.1,0.6-0.3L80.9,11.4
				z"/>
			<path class="st4" d="M100.4,23.1h-8.1l-1.2,2.5c-0.2,0.3-0.2,0.6-0.2,0.8c0,0.4,0.3,0.6,0.9,0.8v0.4h-5.9v-0.4
				c0.3-0.1,0.6-0.2,0.8-0.4c0.2-0.2,0.4-0.5,0.6-1l6.5-13.7c0.2-0.4,0.3-0.8,0.3-1c0-0.4-0.3-0.7-0.8-0.9V9.8h6.3v0.4
				c-0.5,0.1-0.8,0.4-0.8,0.8c0,0.3,0.1,0.5,0.2,0.9l6.8,13.7c0.3,0.6,0.5,1,0.8,1.2c0.2,0.2,0.5,0.4,0.9,0.4v0.4H101v-0.4
				c0.6-0.1,0.9-0.4,0.9-0.8c0-0.2-0.1-0.5-0.3-0.8L100.4,23.1z M99.3,20.7l-2.9-6.3l-2.9,6.3H99.3z"/>
			<path class="st4" d="M114.5,26.3V11.2c0-0.3-0.1-0.5-0.2-0.6c-0.1-0.1-0.3-0.3-0.7-0.3V9.8h5.6v0.4c-0.3,0.1-0.5,0.2-0.7,0.3
				c-0.1,0.1-0.2,0.3-0.2,0.6v15.1c0,0.3,0.1,0.5,0.2,0.6c0.1,0.1,0.3,0.3,0.6,0.3v0.4h-5.6v-0.4c0.3-0.1,0.5-0.2,0.7-0.3
				C114.4,26.7,114.5,26.5,114.5,26.3z"/>
			<path class="st4" d="M144.2,21.5l2.5,3.7l-0.3,0.2c-0.2-0.2-0.4-0.3-0.6-0.3c-0.2,0-0.6,0.2-1.3,0.6c-1.5,0.9-2.8,1.4-3.8,1.7
				c-1,0.3-2.2,0.5-3.6,0.5c-2.8,0-5.1-0.7-6.9-2c-1.1-0.8-1.9-1.7-2.5-2.9c-0.7-1.3-1.1-2.8-1.1-4.3c0-2.2,0.6-4,1.9-5.6
				c1.9-2.4,4.8-3.6,8.6-3.6c1.4,0,2.6,0.1,3.6,0.4c1,0.3,2.3,0.9,3.8,1.7c0.7,0.4,1.2,0.6,1.3,0.6c0.2,0,0.4-0.1,0.6-0.3l0.3,0.2
				l-2.5,3.7l-0.4-0.2c0-0.1,0-0.3,0-0.4c0-0.3-0.1-0.5-0.3-0.7c-0.2-0.2-0.6-0.5-1.2-0.8c-1.5-0.9-3.2-1.3-4.9-1.3
				c-2,0-3.7,0.5-4.9,1.5c-1.4,1.2-2.1,2.7-2.1,4.7c0,1.9,0.7,3.5,2.1,4.7c1.2,1,2.8,1.5,4.9,1.5c1.7,0,3.4-0.4,4.9-1.3
				c0.6-0.3,0.9-0.6,1.2-0.8c0.2-0.2,0.3-0.5,0.3-0.7c0-0.1,0-0.2,0-0.3L144.2,21.5z"/>
			<path class="st4" d="M163.1,9.5c3.1,0,5.6,0.8,7.4,2.5c1.9,1.8,2.9,4,2.9,6.8c0,1.7-0.5,3.3-1.4,4.8c-1.8,2.9-4.8,4.3-8.9,4.3
				c-3.1,0-5.5-0.8-7.3-2.5c-1-0.9-1.7-2-2.2-3.2c-0.4-1.1-0.7-2.3-0.7-3.5c0-1.8,0.5-3.4,1.4-4.9C156,11,159,9.6,163.1,9.5z
				 M163.1,12.6c-1.7,0-3.1,0.5-4.2,1.5c-1.3,1.2-2,2.7-2,4.7c0,1.9,0.7,3.5,2,4.7c1.1,1,2.6,1.5,4.3,1.5c1.7,0,3.1-0.5,4.3-1.5
				c0.7-0.6,1.2-1.3,1.5-2.2c0.3-0.8,0.5-1.6,0.5-2.4c0-2-0.7-3.6-2-4.8C166.3,13.1,164.8,12.6,163.1,12.6z"/>
		</g>
	</g>
	<g>
		<path class="st4" d="M85.4,58.1h-8.1l-1.2,2.5c-0.2,0.3-0.2,0.6-0.2,0.8c0,0.4,0.3,0.6,0.9,0.8v0.4h-5.9v-0.4
			c0.3-0.1,0.6-0.2,0.8-0.4c0.2-0.2,0.4-0.5,0.6-1l6.5-13.7c0.2-0.4,0.3-0.8,0.3-1c0-0.4-0.3-0.7-0.8-0.9v-0.4h6.3v0.4
			c-0.5,0.1-0.8,0.4-0.8,0.8c0,0.3,0.1,0.5,0.2,0.9L91,60.6c0.3,0.6,0.5,1,0.8,1.2c0.2,0.2,0.5,0.4,0.9,0.4v0.4h-6.6v-0.4
			c0.6-0.1,0.9-0.4,0.9-0.8c0-0.2-0.1-0.5-0.3-0.8L85.4,58.1z M84.3,55.7l-2.9-6.3l-2.9,6.3H84.3z"/>
		<path class="st4" d="M101.5,47.8v13.5c0,0.3,0.1,0.5,0.2,0.6c0.1,0.1,0.3,0.3,0.7,0.3v0.4h-5.6v-0.4c0.3-0.1,0.5-0.2,0.7-0.3
			c0.1-0.1,0.2-0.3,0.2-0.6V47.8h-5.5c-0.3,0-0.5,0.1-0.6,0.2c-0.1,0.1-0.3,0.3-0.3,0.7h-0.4V44h0.4c0.1,0.3,0.2,0.5,0.3,0.7
			c0.1,0.1,0.3,0.2,0.6,0.2h14.9c0.3,0,0.5-0.1,0.6-0.2c0.1-0.1,0.3-0.3,0.3-0.7h0.4v4.6H108c-0.1-0.3-0.2-0.5-0.3-0.7
			c-0.1-0.1-0.3-0.2-0.6-0.2H101.5z"/>
		<path class="st4" d="M128.3,46.2v10c0,1.9-0.3,3.3-1,4.2c-1.3,1.7-3.8,2.5-7.8,2.5c-2.8,0-5-0.5-6.5-1.4c-0.9-0.5-1.5-1.3-1.8-2.2
			c-0.3-0.9-0.5-2-0.5-3.2v-10c0-0.3-0.1-0.5-0.2-0.6c-0.1-0.1-0.3-0.3-0.7-0.3v-0.4h5.6v0.4c-0.3,0.1-0.5,0.2-0.6,0.3
			c-0.1,0.1-0.2,0.4-0.2,0.6v8.9c0,1,0.1,1.8,0.2,2.3c0.1,0.5,0.3,0.9,0.6,1.2c0.8,0.9,2.3,1.3,4.3,1.3c2,0,3.5-0.4,4.3-1.3
			c0.3-0.3,0.5-0.7,0.6-1.2c0.1-0.5,0.2-1.2,0.2-2.3v-8.9c0-0.3-0.1-0.5-0.2-0.6c-0.1-0.1-0.3-0.3-0.7-0.3v-0.4h5.2v0.4
			c-0.3,0.1-0.5,0.2-0.7,0.3C128.4,45.7,128.3,46,128.3,46.2z"/>
		<path class="st4" d="M136.7,55.4v5.9c0,0.3,0.1,0.5,0.2,0.6c0.1,0.1,0.3,0.3,0.6,0.3v0.4H132v-0.4c0.3-0.1,0.5-0.2,0.7-0.3
			c0.1-0.1,0.2-0.3,0.2-0.6V46.2c0-0.3-0.1-0.5-0.2-0.6c-0.1-0.1-0.3-0.3-0.7-0.3v-0.4h11.1c1.4,0,2.4,0.1,3.2,0.2
			c0.8,0.2,1.5,0.4,2.1,0.8c0.7,0.5,1.2,1.1,1.5,1.8c0.3,0.7,0.5,1.5,0.5,2.4c0,2.9-1.6,4.6-4.8,5.1l3.5,4.9
			c0.6,0.9,1.1,1.4,1.3,1.7c0.3,0.2,0.6,0.4,1,0.4v0.4H145v-0.4c0.4-0.1,0.7-0.2,0.7-0.5c0-0.2-0.2-0.5-0.6-1.1l-3.6-5.2H136.7z
			 M136.7,52.5h6c0.9,0,1.5,0,1.9-0.1c0.4-0.1,0.7-0.2,1-0.3c0.7-0.4,1-1,1-1.9c0-0.9-0.3-1.6-1-1.9c-0.3-0.2-0.6-0.3-1-0.3
			c-0.4,0-1-0.1-1.9-0.1h-6V52.5z"/>
		<path class="st4" d="M166.6,58.1h-8.1l-1.2,2.5c-0.2,0.3-0.2,0.6-0.2,0.8c0,0.4,0.3,0.6,0.9,0.8v0.4h-5.9v-0.4
			c0.3-0.1,0.6-0.2,0.8-0.4c0.2-0.2,0.4-0.5,0.6-1l6.5-13.7c0.2-0.4,0.3-0.8,0.3-1c0-0.4-0.3-0.7-0.8-0.9v-0.4h6.3v0.4
			c-0.5,0.1-0.8,0.4-0.8,0.8c0,0.3,0.1,0.5,0.2,0.9l6.8,13.7c0.3,0.6,0.5,1,0.8,1.2c0.2,0.2,0.5,0.4,0.9,0.4v0.4h-6.6v-0.4
			c0.6-0.1,0.9-0.4,0.9-0.8c0-0.2-0.1-0.5-0.3-0.8L166.6,58.1z M165.5,55.7l-2.9-6.3l-2.9,6.3H165.5z"/>
	</g>
	<path class="st5" d="M69.4,64.7c0,1.2-1,2.1-2.1,2.1H42.5c-1.2,0-2.1-1-2.1-2.1V39.9c0-1.2,1-2.1,2.1-2.1h24.7c1.2,0,2.1,1,2.1,2.1
		V64.7z"/>
	<path class="st6" d="M34.6,29.8c0,1.2-1,2.1-2.1,2.1H7.7c-1.2,0-2.1-1-2.1-2.1V5.1c0-1.2,1-2.1,2.1-2.1h24.7c1.2,0,2.1,1,2.1,2.1
		V29.8z"/>
	<path class="st7" d="M35.4,64.7c0,1.2-1,2.1-2.1,2.1H8.5c-1.2,0-2.1-1-2.1-2.1V39.9c0-1.2,1-2.1,2.1-2.1h24.7c1.2,0,2.1,1,2.1,2.1
		V64.7z"/>
	<g>
		<path class="st8" d="M48.5,48.9v12.2c0,0.3,0.1,0.5,0.2,0.7c0.1,0.2,0.4,0.3,0.7,0.4v0.5h-5.9v-0.5c0.4-0.1,0.6-0.2,0.7-0.4
			c0.1-0.2,0.2-0.4,0.2-0.7v-17c0-0.3-0.1-0.5-0.2-0.7c-0.1-0.2-0.4-0.3-0.7-0.4v-0.5h6.8V43c-0.4,0.1-0.6,0.3-0.6,0.7
			c0,0.2,0.1,0.5,0.4,0.8L61.3,56V44.1c0-0.3-0.1-0.5-0.2-0.7c-0.1-0.2-0.4-0.3-0.7-0.4v-0.5h5.9V43c-0.4,0.1-0.6,0.2-0.7,0.4
			c-0.1,0.2-0.2,0.4-0.2,0.7v17c0,0.3,0.1,0.5,0.2,0.7c0.1,0.2,0.4,0.3,0.7,0.4v0.5h-6.3v-0.5c0.4-0.1,0.6-0.3,0.6-0.6
			c0-0.2-0.2-0.5-0.7-1L48.5,48.9z"/>
	</g>
	<g>
		<path class="st4" d="M19.5,27.9L12.1,14v12.4c0,0.3,0.1,0.5,0.2,0.7c0.1,0.2,0.4,0.3,0.7,0.4v0.5H7.1v-0.5
			c0.4-0.1,0.6-0.2,0.7-0.4c0.1-0.2,0.2-0.4,0.2-0.7v-17c0-0.3-0.1-0.5-0.2-0.7C7.7,8.5,7.5,8.4,7.1,8.3V7.8h7.8v0.5
			c-0.5,0.1-0.7,0.4-0.7,0.8c0,0.2,0.1,0.4,0.2,0.7l5.5,10.4L25.5,10c0.2-0.5,0.4-0.8,0.4-1c0-0.4-0.2-0.6-0.7-0.7V7.8h7.6v0.5
			c-0.4,0.1-0.6,0.2-0.7,0.4c-0.1,0.2-0.2,0.4-0.2,0.7v17c0,0.3,0.1,0.5,0.2,0.7c0.1,0.2,0.4,0.3,0.7,0.4v0.5h-6.3v-0.5
			c0.3-0.1,0.6-0.2,0.7-0.4c0.1-0.2,0.2-0.4,0.2-0.7V14L19.5,27.9z"/>
	</g>
	<g>
		<path class="st9" d="M18.6,94.3l-7.4-13.9v12.4c0,0.3,0.1,0.5,0.2,0.7c0.1,0.2,0.4,0.3,0.7,0.4v0.5H6.2v-0.5
			c0.4-0.1,0.6-0.2,0.7-0.4c0.1-0.2,0.2-0.4,0.2-0.7v-17c0-0.3-0.1-0.5-0.2-0.7c-0.1-0.2-0.4-0.3-0.7-0.4v-0.5h7.8v0.5
			c-0.5,0.1-0.7,0.4-0.7,0.8c0,0.2,0.1,0.4,0.2,0.7l5.5,10.4l5.6-10.2c0.2-0.5,0.4-0.8,0.4-1c0-0.4-0.2-0.6-0.7-0.7v-0.5h7.6v0.5
			c-0.4,0.1-0.6,0.2-0.7,0.4c-0.1,0.2-0.2,0.4-0.2,0.7v17c0,0.3,0.1,0.5,0.2,0.7c0.1,0.2,0.4,0.3,0.7,0.4v0.5h-6.3v-0.5
			c0.3-0.1,0.6-0.2,0.7-0.4c0.1-0.2,0.2-0.4,0.2-0.7V80.4L18.6,94.3z"/>
		<path class="st9" d="M50.1,87.2v4h10.5c0.3,0,0.5-0.1,0.7-0.2c0.2-0.1,0.3-0.4,0.4-0.7h0.4v4.9h-0.4c-0.1-0.3-0.2-0.6-0.4-0.7
			c-0.2-0.1-0.4-0.2-0.7-0.2H45.2v-0.4c0.3-0.1,0.6-0.2,0.7-0.4c0.1-0.2,0.2-0.4,0.2-0.7V79.2c0-0.3-0.1-0.5-0.2-0.7
			c-0.1-0.2-0.4-0.3-0.7-0.4v-0.4h14.9c0.3,0,0.6-0.1,0.7-0.2c0.2-0.1,0.3-0.4,0.4-0.7h0.4v4.9h-0.4c-0.1-0.4-0.2-0.6-0.4-0.7
			c-0.2-0.1-0.4-0.2-0.7-0.2h-10v3.6h6.2c0.3,0,0.5-0.1,0.7-0.2c0.2-0.1,0.3-0.4,0.4-0.7h0.4v4.8h-0.4c-0.1-0.3-0.2-0.6-0.4-0.7
			c-0.2-0.1-0.4-0.2-0.7-0.2H50.1z M57.7,71.7v0.4c-0.4,0-0.7,0.1-0.9,0.4L54.8,75c-0.1,0.1-0.1,0.1-0.1,0.2c0,0.2,0.1,0.2,0.3,0.2
			c0,0,0,0,0.1,0v0.4h-3.2v-0.4c0.2,0,0.4,0,0.5-0.1c0.1-0.1,0.2-0.2,0.3-0.4l1-2.4c0-0.1,0.1-0.2,0.1-0.2c0-0.2-0.1-0.3-0.4-0.3
			v-0.4H57.7z"/>
		<path class="st9" d="M85.2,85.6l4.9,6.5c0.4,0.6,0.8,1,1.2,1.2c0.4,0.3,0.8,0.4,1.2,0.5v0.4h-7.6v-0.4c0.6-0.1,0.9-0.4,0.9-0.8
			c0-0.2-0.2-0.5-0.5-0.9l-2.6-3.5L80,92.1c-0.3,0.3-0.4,0.6-0.4,0.9c0,0.4,0.3,0.6,1,0.8v0.4h-7v-0.4c0.5-0.1,0.8-0.3,1.1-0.5
			c0.3-0.2,0.6-0.6,1.1-1.2l5-6.2l-4.4-5.8c-0.9-1.2-1.7-1.9-2.4-2v-0.4h7.5v0.4c-0.6,0.2-1,0.5-1,0.9c0,0.2,0.2,0.6,0.5,1l2.2,2.9
			l2.1-2.7c0.4-0.6,0.6-0.9,0.6-1.2c0-0.4-0.3-0.7-1-0.9v-0.4h7.2v0.4c-0.5,0.1-0.9,0.3-1.2,0.5c-0.3,0.2-0.7,0.7-1.3,1.5L85.2,85.6
			z"/>
		<path class="st9" d="M109.2,79.2v13.5c0,0.3,0.1,0.5,0.2,0.7c0.1,0.2,0.4,0.3,0.7,0.4v0.4h-5.8v-0.4c0.3-0.1,0.6-0.2,0.7-0.4
			c0.1-0.2,0.2-0.4,0.2-0.7V79.2c0-0.3-0.1-0.5-0.2-0.7c-0.1-0.2-0.4-0.3-0.7-0.4v-0.4h5.8v0.4c-0.4,0.1-0.6,0.2-0.7,0.4
			C109.3,78.7,109.2,78.9,109.2,79.2z"/>
		<path class="st9" d="M139.4,88.3l2.5,3.6l-0.3,0.3c-0.2-0.2-0.4-0.3-0.6-0.3c-0.2,0-0.6,0.2-1.2,0.5c-1.3,0.8-2.5,1.3-3.6,1.6
			c-1,0.3-2.2,0.5-3.6,0.5c-2.7,0-4.9-0.6-6.6-1.9c-1-0.7-1.7-1.7-2.3-2.8c-0.6-1.2-0.9-2.5-0.9-3.9c0-1.9,0.6-3.6,1.7-5.1
			c1.8-2.3,4.5-3.5,8.1-3.5c1.3,0,2.5,0.2,3.6,0.5c1,0.3,2.2,0.8,3.6,1.6c0.6,0.4,1,0.5,1.2,0.5c0.1,0,0.3-0.1,0.6-0.3l0.3,0.3
			l-2.5,3.6l-0.3-0.2c0-0.1,0-0.2,0-0.2c0-0.1,0-0.2,0-0.2c0-0.5-0.7-1-2-1.6c-1.3-0.6-2.5-0.9-3.8-0.9c-1.8,0-3.3,0.5-4.4,1.4
			c-1.3,1.1-2,2.4-2,4.1c0,1.7,0.7,3,2,4.1c1.2,0.9,2.6,1.4,4.4,1.4c1.4,0,2.8-0.3,4.2-1c1.1-0.6,1.6-1,1.6-1.4c0,0,0-0.2,0-0.4
			L139.4,88.3z"/>
		<path class="st9" d="M163.9,77.4c2.6,0,4.8,0.7,6.6,2c2.1,1.6,3.1,3.9,3.1,6.7c0,2.7-1,4.9-3.1,6.5c-1.7,1.3-3.9,2-6.5,2
			c-2.6,0-4.8-0.7-6.5-2c-2.1-1.6-3.2-3.8-3.2-6.6c0-2.8,1.1-5,3.2-6.6C159.1,78.1,161.3,77.4,163.9,77.4z M163.9,80.5
			c-1.7,0-3.1,0.5-4.2,1.6c-1,1-1.5,2.3-1.5,3.8c0,1.5,0.5,2.8,1.5,3.8c1.1,1.1,2.5,1.7,4.2,1.7c1.7,0,3.1-0.6,4.2-1.7
			c1-1,1.5-2.3,1.5-3.8c0-1.6-0.5-2.9-1.5-3.9C167,81.1,165.6,80.5,163.9,80.5z"/>
	</g>
</g>
</svg>
