<?xml version="1.0" encoding="utf-8"?>
<!-- Generator: Adobe Illustrator 26.5.0, SVG Export Plug-In . SVG Version: 6.00 Build 0)  -->
<svg version="1.1" id="Capa_1" xmlns="http://www.w3.org/2000/svg" xmlns:xlink="http://www.w3.org/1999/xlink" x="0px" y="0px"
	 viewBox="0 0 106 100" style="enable-background:new 0 0 106 100;" xml:space="preserve">
<style type="text/css">
	.st0{fill:none;}
	.st1{fill:url(#SVGID_1_);}
	.st2{fill:url(#SVGID_00000029032173896794309920000003884470408705994421_);}
	.st3{fill:#747A26;}
	.st4{fill:#10706D;}
</style>
<g>
	<g>
		<g>
			<g>
				<g>
					<path class="st4" d="M26.4,17.8c0-0.6,0-1.3,0-2.1c0-0.8,0-1.7,0-2.6c0-0.9,0.1-1.8,0.1-2.8c0.1-0.9,0.1-1.8,0.2-2.6
						c0.1-0.8,0.2-1.5,0.3-2.1c0.1-0.6,0.3-1,0.5-1.2c0.3-0.3,0.5-0.5,0.8-0.6c0.3-0.1,0.6-0.2,0.9-0.2c0.4,0,0.8,0.1,1.3,0.3
						c0.4,0.2,0.8,0.4,1.2,0.7c0.4,0.3,0.7,0.6,1,1c0.3,0.4,0.6,0.7,0.8,1.1c0.3,0.5,0.6,1.1,0.8,1.8c0.2,0.6,0.4,1.3,0.5,1.9
						c0.1,0.7,0.2,1.3,0.3,2c0.1,0.7,0.1,1.3,0.1,1.9c0,0.9-0.1,1.7-0.2,2.3c-0.1,0.7-0.3,1.2-0.4,1.5c-0.1,0.2-0.4,0.4-0.8,0.5
						c-0.4,0.1-0.8,0.2-1.2,0.3C32.4,19,31.9,19,31.4,19c-0.5,0-1,0-1.4,0c-0.6,0-1,0-1.5,0c-0.4,0-0.7,0.1-0.8,0.2
						c-0.1,0.2-0.2,0.4-0.2,0.8s0.1,0.8,0.2,1.2s0.4,0.9,0.8,1.3c0.3,0.4,0.8,0.7,1.4,0.8c0.4,0.1,0.8,0.2,1.2,0.2
						c0.6,0,1.3-0.1,1.8-0.3s1-0.5,1.2-0.8c0.3-0.1,0.5-0.1,0.6-0.1c0.2,0.1,0.3,0.1,0.4,0.3c0.1,0.1,0.1,0.3,0.1,0.4
						c0,0.1-0.1,0.3-0.1,0.3c-0.2,0.1-0.4,0.3-0.7,0.5c-0.3,0.2-0.6,0.4-0.9,0.6c-0.4,0.2-0.7,0.3-1.2,0.5c-0.4,0.1-0.9,0.2-1.4,0.2
						c-0.5,0-1.1-0.1-1.6-0.2c-0.7-0.2-1.3-0.5-1.7-0.9c-0.4-0.4-0.7-0.9-1-1.5c-0.2-0.6-0.4-1.2-0.4-1.9c-0.1-0.7-0.1-1.5-0.1-2.3
						V17.8z M28.6,5.6c-0.2,0.2-0.4,0.7-0.5,1.3c-0.1,0.6-0.3,1.4-0.4,2.2c-0.1,0.8-0.2,1.7-0.2,2.6c-0.1,0.9-0.1,1.8-0.1,2.6
						c0,0.9,0,1.7,0.1,2.3c0.1,0.6,0.2,1,0.3,1c0.1,0,0.3,0,0.5,0c0.2,0,0.5,0,0.8,0c0.5,0,1,0,1.5,0c0.6,0,1.1-0.1,1.6-0.1
						c0.5-0.1,0.9-0.1,1.3-0.2c0.3-0.1,0.5-0.2,0.6-0.3c0.1-0.5,0.1-1.1,0.2-1.6c0-0.5,0-1.1,0-1.5c0-1.2-0.1-2.4-0.4-3.4
						c-0.2-1-0.6-2-1-2.7c-0.5-0.8-1-1.4-1.5-1.9C30.8,5.2,30.3,5,29.8,5C29.4,5,28.9,5.2,28.6,5.6z"/>
				</g>
			</g>
			<g>
				<g>
					<path class="st4" d="M37.8,4.3c0-0.1,0.2-0.2,0.5-0.2c0.3,0,0.6,0.1,0.7,0.3c0.1,0.1,0.1,0.2,0.1,0.5c0,0.2-0.1,0.5-0.1,0.8
						C39,6,39,6.3,39,6.5c0,0.3,0.1,0.4,0.3,0.5c0.1,0,0.3-0.2,0.5-0.5c0.2-0.3,0.5-0.6,0.8-1c0.3-0.3,0.7-0.7,1.2-0.9
						c0.4-0.3,1-0.4,1.6-0.4c0.9,0,1.7,0.2,2.2,0.5c0.6,0.3,1,0.8,1.3,1.3c0.3,0.5,0.5,1.1,0.6,1.7c0.1,0.6,0.2,1.1,0.3,1.6
						c0,0.4,0.1,1.1,0.2,2.1c0.1,1,0.2,2.2,0.2,3.4c0.1,1.3,0.2,2.6,0.2,3.9c0.1,1.3,0.1,2.5,0.2,3.5c0,0.6,0.1,1.1,0.1,1.6
						c0,0.4,0,0.7,0,0.8c0,0.2,0,0.3-0.2,0.4c-0.1,0.1-0.3,0.1-0.4,0.1c-0.2,0-0.3-0.1-0.5-0.2c-0.2-0.1-0.2-0.2-0.3-0.3
						c0-0.1,0-0.4-0.1-0.9c0-0.5-0.1-1.1-0.1-1.8c-0.1-1.4-0.2-3.1-0.3-5.3c-0.1-2.1-0.3-4.6-0.5-7.3c-0.1-1.2-0.4-2.1-0.9-2.8
						c-0.5-0.6-1.2-0.9-2.1-0.9c-0.7,0-1.3,0.3-1.8,0.6c-0.5,0.4-0.9,0.8-1.2,1.4c-0.3,0.5-0.6,1.1-0.7,1.6c-0.2,0.6-0.3,1-0.4,1.4
						c-0.1,0.4-0.2,0.9-0.2,1.5C39,12.7,39,13.3,39,14c0,0.6-0.1,1.3-0.1,2c0,0.7,0,1.4,0,2.1c0,0.6,0,1.2,0,1.8c0,0.6,0,1.1,0,1.7
						c0,0.4,0,0.8,0,1.2c0,0.4,0,0.7,0,1c0,0.3,0,0.6,0,0.9c0,0.3,0,0.5,0,0.6c0,0.1,0,0.2-0.1,0.3c-0.1,0.1-0.2,0.1-0.3,0.1
						c-0.1,0-0.2,0-0.4-0.1c-0.1-0.1-0.2-0.2-0.2-0.3c0-0.1,0-0.5-0.1-1.1c0-0.7,0-1.5,0-2.6c0-1,0-2.2,0-3.5c0-1.3,0-2.6,0-3.9
						c0-1.1,0-2.2,0-3.3c0-1.1,0-2,0-2.9c0-0.9,0-1.6,0-2.2C37.8,4.9,37.8,4.5,37.8,4.3L37.8,4.3z"/>
				</g>
			</g>
			<g>
				<g>
					<path class="st4" d="M53.4,4.1c0-0.2,0.1-0.3,0.3-0.4c0.2-0.1,0.4-0.2,0.6-0.2c0.2,0,0.4,0,0.5,0.1C54.9,3.8,55,3.9,55,4.1
						c0,0.2,0,0.5,0,1.1c0,0.6-0.1,1.3-0.1,2.1c0,0.7-0.1,1.5-0.1,2.3c0,0.8-0.1,1.6-0.1,2.4c0,0.8-0.1,1.5-0.1,2.2
						c0,0.7,0,1.3,0,1.7c0,0.3,0,0.5,0,0.8c0,0.2,0.1,0.3,0.1,0.4c0.2,0.1,0.5,0.1,1.1,0.1c0.5,0,1-0.1,1.5-0.1c0.2,0,0.4,0,0.5,0.2
						c0.1,0.1,0.2,0.3,0.2,0.5s0,0.3-0.1,0.5c-0.1,0.2-0.2,0.2-0.3,0.2h-0.6c-0.2,0-0.4,0-0.7,0c-0.3,0-0.5,0-0.7,0
						c-0.2,0-0.4,0.1-0.6,0.1c-0.2,0.1-0.3,0.1-0.3,0.2c0,0.1-0.1,0.3-0.1,0.6c0,0.3,0,0.6,0,1c0,0.5,0,1,0.1,1.5
						c0.1,0.5,0.2,0.8,0.3,1c0.3,0.3,0.6,0.5,1,0.6c0.4,0,0.8,0.1,1.2,0c0.1,0,0.2,0.1,0.3,0.2c0.1,0.1,0.1,0.3,0.1,0.4
						c0,0.5-0.2,0.7-0.5,0.8c-0.2,0-0.5,0-0.8,0c-0.3,0-0.6-0.1-0.9-0.1c-0.3-0.1-0.6-0.2-0.8-0.4c-0.3-0.2-0.5-0.5-0.6-0.8
						c-0.2-0.4-0.3-0.8-0.3-1.2c-0.1-0.5-0.1-0.9-0.1-1.3c0-0.2,0-0.4,0-0.5s0-0.3,0-0.5c0-0.4,0-0.6,0-0.9c0-0.2,0-0.4-0.1-0.4v0
						c-0.1-0.1-0.3-0.2-0.7-0.2c-0.4,0-0.7,0-1.1,0h-0.6c-0.2,0-0.3-0.1-0.3-0.2c-0.1-0.1-0.1-0.2-0.1-0.4c0-0.1,0-0.3,0.1-0.4
						c0.1-0.1,0.2-0.2,0.3-0.2c0.1,0,0.2-0.1,0.4,0c0.2,0,0.4,0,0.5,0c0.3,0,0.6,0,0.9,0c0.3,0,0.5-0.1,0.5-0.3c0-0.1,0-0.3,0.1-0.8
						c0-0.4,0-1,0.1-1.7c0-0.7,0-1.4,0-2.3c0-0.8,0-1.7,0-2.5c0-0.8,0-1.7,0-2.4c0-0.8,0-1.4,0-2c0-0.4,0-0.6,0-0.9
						C53.4,4.4,53.4,4.2,53.4,4.1z"/>
				</g>
			</g>
			<g>
				<g>
					<path class="st4" d="M59.8,4.5C59.7,4.2,59.8,4,60,4c0.2-0.1,0.4-0.1,0.6-0.2L61,3.7c0.1,0,0.2,0,0.5-0.1c0.2,0,0.5,0,0.8,0
						c0.5,0,1.2,0.1,1.9,0.3c0.7,0.2,1.4,0.5,2.1,1c0.7,0.5,1.2,1.2,1.7,2.1c0.5,0.9,0.7,2.1,0.7,3.5C68.5,11.9,68.3,13,68,14
						c-0.3,0.9-0.7,1.7-1.2,2.4c-0.5,0.6-1,1.1-1.6,1.5c-0.6,0.3-1.2,0.6-1.8,0.7c-0.3,0.1-0.4,0.2-0.4,0.3c0.1,0.1,0.2,0.2,0.3,0.3
						c0.7,0.4,1.4,0.8,2,1.1c0.6,0.3,1.2,0.6,1.6,0.8c0.4,0.2,0.6,0.3,0.8,0.4c0.2,0.1,0.3,0.2,0.4,0.2c0.1,0.1,0.2,0.2,0.2,0.4
						s0,0.3-0.1,0.5c-0.1,0.2-0.2,0.3-0.4,0.4c-0.2,0.1-0.3,0.1-0.5,0c-0.2-0.1-0.6-0.4-1.3-0.8c-0.7-0.4-1.5-1-2.3-1.5
						c-0.4-0.3-0.8-0.5-1.1-0.8c-0.4-0.3-0.7-0.5-1.1-0.8h0c-0.2-0.2-0.3-0.2-0.4-0.2c-0.1,0-0.1,0.1-0.2,0.1c0,0-0.1,0.2-0.1,0.3
						c0,0.2-0.1,0.4-0.1,0.7c0,0.3,0,0.6,0,0.9c0,0.3,0,0.7,0,1c0,0.6,0,1.2-0.1,1.8c0,0.6-0.1,0.9-0.1,1c-0.1,0.2-0.3,0.3-0.4,0.4
						c-0.2,0.1-0.3,0-0.4-0.2c-0.1-0.1-0.1-0.4-0.1-0.9c0-0.5,0-1.3,0-2.3c0-0.8,0-1.8,0-2.9c0-1.2,0.1-2.5,0.1-4.1
						c0-1.3,0.1-2.7,0.1-3.9c0-1.3,0-2.4,0-3.4c0-0.7,0-1.3,0-1.8C59.8,5,59.8,4.7,59.8,4.5z M60.7,6c0,0.1,0,0.3,0,0.8
						c0,0.5,0,1.1,0,1.8c0,0.7,0,1.5,0,2.3c0,0.8,0,1.6,0.1,2.4c0,0.8,0,1.5,0,2.1s0,1,0,1.2v0.1c0,0.2,0.1,0.4,0.2,0.6
						c0.1,0.2,0.3,0.3,0.7,0.2h0c0.1,0,0.4,0,0.7-0.1c0.3,0,0.7-0.1,1.2-0.3c0.4-0.1,0.9-0.3,1.4-0.6s0.9-0.7,1.3-1.2
						c0.4-0.5,0.7-1.1,1-1.9c0.3-0.7,0.4-1.7,0.4-2.7c0-0.9-0.1-1.7-0.3-2.4c-0.2-0.7-0.5-1.2-0.8-1.6c-0.3-0.4-0.7-0.7-1.1-0.9
						c-0.4-0.2-0.8-0.4-1.3-0.5c-0.4-0.1-0.8-0.1-1.2-0.2c-0.4,0-0.7,0-1,0c-0.1,0-0.1,0-0.2,0c-0.1,0-0.1,0-0.1,0
						c-0.5,0-0.8,0-0.8,0.1C60.8,5.6,60.7,5.8,60.7,6L60.7,6z"/>
				</g>
			</g>
			<g>
				<g>
					<path class="st4" d="M70.5,17.8c0-0.6,0-1.3,0-2.1c0-0.8,0-1.7,0-2.6c0-0.9,0.1-1.8,0.1-2.8c0.1-0.9,0.1-1.8,0.2-2.6
						s0.2-1.5,0.3-2.1c0.1-0.6,0.3-1,0.5-1.2c0.3-0.3,0.5-0.5,0.8-0.6c0.3-0.1,0.6-0.2,0.9-0.2c0.4,0,0.8,0.1,1.3,0.3
						c0.4,0.2,0.8,0.4,1.2,0.7c0.4,0.3,0.7,0.6,1,1c0.3,0.4,0.6,0.7,0.8,1.1c0.3,0.5,0.6,1.1,0.8,1.8c0.2,0.6,0.4,1.3,0.5,1.9
						c0.1,0.7,0.2,1.3,0.3,2c0.1,0.7,0.1,1.3,0.1,1.9c0,0.9-0.1,1.7-0.2,2.3c-0.1,0.7-0.3,1.2-0.4,1.5c-0.1,0.2-0.4,0.4-0.8,0.5
						c-0.4,0.1-0.8,0.2-1.2,0.3C76.5,19,76,19,75.6,19c-0.5,0-1,0-1.4,0c-0.6,0-1,0-1.5,0c-0.4,0-0.7,0.1-0.8,0.2
						c-0.1,0.2-0.2,0.4-0.2,0.8s0.1,0.8,0.2,1.2c0.2,0.4,0.4,0.9,0.8,1.3c0.3,0.4,0.8,0.7,1.4,0.8c0.4,0.1,0.8,0.2,1.2,0.2
						c0.6,0,1.3-0.1,1.8-0.3c0.6-0.2,1-0.5,1.2-0.8c0.3-0.1,0.5-0.1,0.6-0.1c0.2,0.1,0.3,0.1,0.4,0.3c0.1,0.1,0.1,0.3,0.1,0.4
						c0,0.1-0.1,0.3-0.1,0.3c-0.2,0.1-0.4,0.3-0.7,0.5c-0.3,0.2-0.6,0.4-0.9,0.6c-0.4,0.2-0.7,0.3-1.2,0.5c-0.4,0.1-0.9,0.2-1.4,0.2
						c-0.5,0-1.1-0.1-1.6-0.2C73,24.7,72.4,24.4,72,24c-0.4-0.4-0.7-0.9-1-1.5c-0.2-0.6-0.4-1.2-0.4-1.9c-0.1-0.7-0.1-1.5-0.1-2.3
						V17.8z M72.7,5.6c-0.2,0.2-0.4,0.7-0.5,1.3c-0.1,0.6-0.3,1.4-0.4,2.2s-0.2,1.7-0.2,2.6c-0.1,0.9-0.1,1.8-0.1,2.6
						c0,0.9,0,1.7,0.1,2.3c0.1,0.6,0.2,1,0.3,1c0.1,0,0.3,0,0.5,0c0.2,0,0.5,0,0.8,0c0.5,0,1,0,1.5,0c0.6,0,1.1-0.1,1.6-0.1
						c0.5-0.1,0.9-0.1,1.3-0.2c0.3-0.1,0.5-0.2,0.6-0.3c0.1-0.5,0.1-1.1,0.2-1.6c0-0.5,0-1.1,0-1.5c0-1.2-0.1-2.4-0.4-3.4
						c-0.2-1-0.6-2-1-2.7c-0.5-0.8-1-1.4-1.5-1.9C74.9,5.2,74.4,5,73.9,5C73.5,5,73,5.2,72.7,5.6z"/>
				</g>
			</g>
		</g>
	</g>
	<g>
		<g>
			<g>
				<g>
					<path class="st4" d="M80.7,41.5c0-0.1,0-0.2,0-0.3c0.1-0.1,0.1-0.2,0.2-0.2c0.1-0.1,0.2-0.1,0.3-0.1c0.1,0,0.2,0.1,0.2,0.2
						c0,0.1,0.1,0.2,0.2,0.5c0.1,0.3,0.2,0.6,0.3,1c0.1,0.4,0.3,0.8,0.4,1.3c0.1,0.5,0.3,0.9,0.4,1.4c0.1,0.5,0.3,0.9,0.4,1.3
						c0.1,0.4,0.2,0.8,0.3,1.1c0,0.1,0.1,0.2,0.1,0.3c0,0.1,0.1,0.1,0.1,0.2l0.1,0.2c0.1-0.1,0.1-0.3,0.2-0.4
						c0.1-0.1,0.1-0.3,0.2-0.5c0.1-0.2,0.1-0.4,0.2-0.6c0.2-0.5,0.3-1.1,0.5-1.7c0.2-0.6,0.4-1.2,0.6-1.8c0.2-0.6,0.3-1.1,0.5-1.5
						c0.1-0.5,0.2-0.8,0.3-0.9c0.1-0.3,0.2-0.4,0.4-0.4c0.1,0,0.2,0.1,0.3,0.2c0.1,0.1,0.1,0.3,0.1,0.6c0,0.1-0.1,0.3-0.2,0.6
						c-0.1,0.3-0.2,0.7-0.4,1.1c-0.2,0.4-0.3,0.9-0.5,1.4c-0.2,0.5-0.4,1-0.5,1.5c-0.2,0.5-0.3,0.9-0.5,1.3
						c-0.1,0.4-0.3,0.8-0.4,1.1c-0.1,0.3-0.2,0.6-0.3,0.8c-0.1,0.2-0.1,0.3-0.1,0.4c0,0,0,0.2,0,0.5s0,0.6,0,1c0,0.4,0,0.7,0,1
						c0,0.3,0,0.5,0,0.6c0,0.1,0,0.2-0.1,0.2C83.9,53,83.8,53,83.7,53c-0.1,0-0.1,0-0.2-0.1s-0.1-0.2-0.1-0.3c0-0.1,0-0.2,0-0.4
						c0-0.1,0-0.3,0-0.5c0-0.3,0-0.7,0-1.1c0-0.4,0-0.6,0-0.8v-0.3c0,0-0.1-0.2-0.2-0.6c-0.1-0.4-0.3-0.9-0.5-1.4
						c-0.2-0.6-0.4-1.2-0.6-1.9c-0.2-0.7-0.4-1.3-0.6-1.9c-0.2-0.6-0.4-1.1-0.5-1.5C80.8,41.8,80.7,41.6,80.7,41.5z"/>
				</g>
			</g>
		</g>
	</g>
	<g>
		<g>
			<g>
				<g>
					<path class="st4" d="M23.4,30.3c-0.4,0-0.8-0.1-1-0.4c-0.2-0.2-0.3-0.5-0.3-0.8s0.1-0.6,0.3-0.8c0.2-0.3,0.6-0.4,1-0.5
						c0.4-0.1,1.1-0.1,2-0.2c0.9,0,1.9,0,2.9,0c1,0,1.9,0.2,2.7,0.4c0.8,0.2,1.4,0.5,1.6,0.9c0.4,0.7,0.7,1.9,1,3.4
						c0.3,1.5,0.4,3.3,0.6,5.3s0.2,4,0.2,6.2c0,2.2,0,4.3,0,6.2c0,2-0.1,3.8-0.1,5.3c0,1.6,0,2.7,0,3.5c0,0.3-0.1,0.5-0.4,0.6
						c-0.3,0.1-0.6,0.2-0.9,0.1c-0.3,0-0.6-0.1-0.8-0.2c-0.3-0.1-0.4-0.3-0.3-0.5c0.1-0.4,0.1-0.7,0.1-1c0-0.2-0.1-0.4-0.4-0.6
						c-0.1,0-0.5,0.1-1.1,0.3c-0.6,0.3-1.4,0.5-2.3,0.8c-0.9,0.3-1.9,0.5-2.9,0.6c-1,0.1-2,0.1-2.8-0.2s-1.6-0.9-2.1-1.7
						c-0.6-0.9-0.8-2.2-0.7-3.9c0-1.3,0.3-2.3,0.9-3c0.6-0.7,1.3-1.2,2.2-1.6c0.8-0.3,1.8-0.5,2.8-0.5c1,0,2,0,2.8,0.1
						c0.9,0.1,1.7,0.2,2.3,0.3c0.6,0.1,1,0.1,1.1,0.1c0.1,0,0.2-0.5,0.3-1.3c0.1-0.8,0.1-1.8,0.1-3s0-2.5-0.1-3.9
						c-0.1-1.4-0.2-2.7-0.3-4c-0.1-1.3-0.2-2.4-0.4-3.4c-0.2-1-0.4-1.6-0.6-1.8c-0.3-0.4-0.8-0.7-1.4-0.8c-0.6-0.1-1.3-0.2-2.1-0.2
						c-0.7,0-1.5,0-2.2,0.1C24.4,30.3,23.8,30.3,23.4,30.3z M31.7,51.3c-0.1-0.1-0.4-0.2-1-0.3c-0.5-0.1-1.1-0.3-1.8-0.4
						c-0.7-0.1-1.4-0.2-2.2-0.2c-0.8,0-1.5,0-2.2,0.2c-0.7,0.1-1.2,0.4-1.6,0.8c-0.4,0.4-0.6,0.9-0.6,1.6c0,1.1,0.2,2,0.7,2.6
						c0.5,0.6,1,0.9,1.7,1.1c0.7,0.2,1.5,0.2,2.3,0c0.8-0.1,1.6-0.4,2.3-0.6c0.7-0.3,1.3-0.5,1.8-0.8c0.5-0.3,0.8-0.5,0.9-0.6
						c0.1-0.2,0.2-0.4,0.2-0.7c0.1-0.3,0.1-0.6,0-1c0-0.3-0.1-0.6-0.2-0.9C32,51.7,31.9,51.5,31.7,51.3z"/>
				</g>
			</g>
			<g>
				<g>
					<path class="st4" d="M39.5,30c-0.6,0.1-1.1,0-1.4-0.3c-0.3-0.3-0.5-0.6-0.6-1c-0.1-0.4,0-0.7,0.1-1s0.4-0.4,0.8-0.4
						c0.3,0,0.7,0.1,1.4,0.1c0.7,0,1.5,0,2.4,0c0.9,0,1.9,0,2.9,0c1,0,2,0,2.9,0c0.9,0,1.7,0,2.4,0.1c0.7,0,1.1,0.1,1.3,0.1
						c0.3,0.1,0.5,0.2,0.6,0.3c0.1,0.1,0.2,0.3,0.1,0.6c0,0.2-0.1,0.5-0.2,0.7c-0.1,0.3-0.2,0.5-0.4,0.8c-0.2,0.3-0.5,1.1-0.9,2.2
						c-0.5,1.1-1,2.5-1.7,4.1c-0.6,1.6-1.3,3.3-2,5.1c-0.7,1.8-1.4,3.6-2,5.2c-0.7,1.7-1.2,3.2-1.7,4.5c-0.5,1.3-0.9,2.3-1.1,2.9
						c-0.2,0.6-0.3,1-0.5,1.3c-0.1,0.3-0.2,0.5-0.1,0.7c0,0.1,0.2,0.2,0.4,0.2c0.2,0,0.5,0,1,0c0.2,0,0.7-0.1,1.5-0.1
						c0.8,0,1.6-0.1,2.5-0.1c0.9,0,1.7-0.1,2.6-0.1c0.8,0,1.4-0.1,1.8-0.1c0.5,0,0.8,0.1,1,0.4c0.2,0.3,0.2,0.6,0.1,0.9
						s-0.2,0.6-0.4,0.9s-0.5,0.4-0.8,0.5c-0.2,0-0.6,0.1-1.2,0.1c-0.6,0-1.3,0-2.1,0.1c-0.8,0-1.6,0.1-2.5,0.1
						c-0.9,0-1.7,0.1-2.5,0.1c-0.8,0-1.4,0-2,0c-0.5,0-0.9,0-1-0.1c-0.3-0.1-0.6-0.4-0.8-0.9c-0.2-0.5-0.2-1.1,0-1.8
						c0.1-0.2,0.3-0.9,0.8-2c0.4-1.1,1-2.5,1.7-4.2c0.7-1.6,1.4-3.4,2.2-5.4c0.8-2,1.5-3.9,2.2-5.7c0.7-1.8,1.4-3.5,1.9-5
						c0.6-1.5,1-2.6,1.2-3.3c0.2-0.5,0.1-0.8-0.1-0.8c-0.2,0-0.6-0.1-1-0.1c-0.6,0-1.4,0-2.2,0c-0.8,0-1.7,0-2.5,0
						c-0.8,0-1.6,0.1-2.4,0.1C40.6,30,40,30,39.5,30z"/>
				</g>
			</g>
			<g>
				<g>
					<path class="st4" d="M72,59.9c0,0.1-0.1,0.2-0.3,0.3c-0.2,0.1-0.4,0.1-0.6,0.1c-0.2,0-0.5,0-0.7-0.1c-0.3,0-0.4-0.2-0.6-0.3
						c-0.1-0.1-0.2-0.4-0.1-0.8c0-0.4,0.1-0.8,0.1-1.3c0.1-0.4,0.1-0.9,0.1-1.2c0-0.4,0-0.6-0.2-0.7c-0.2,0.1-0.4,0.3-0.7,0.8
						c-0.3,0.4-0.7,0.9-1.2,1.4c-0.5,0.5-1.1,1-1.8,1.4c-0.7,0.4-1.5,0.6-2.4,0.6c-1.5,0-2.6-0.3-3.5-0.8c-0.9-0.5-1.5-1.2-2-2
						c-0.5-0.8-0.8-1.7-1-2.6c-0.2-0.9-0.3-1.8-0.4-2.5c-0.1-0.5-0.1-1.4-0.2-2.6c-0.1-1.3-0.2-2.7-0.3-4.3
						c-0.1-1.6-0.2-3.3-0.3-5.1c-0.1-1.8-0.2-3.4-0.3-5c-0.1-1.5-0.2-2.8-0.2-3.9c-0.1-1.1-0.1-1.7-0.1-2c0-0.3,0.1-0.6,0.3-0.7
						c0.2-0.1,0.5-0.2,0.8-0.2c0.3,0,0.6,0.1,0.9,0.3c0.3,0.2,0.4,0.4,0.5,0.6c0,0.3,0.1,1,0.1,2.2c0.1,1.2,0.1,2.9,0.2,4.9
						c0.1,2,0.2,4.4,0.4,7.1c0.2,2.7,0.4,5.6,0.6,8.8c0.2,1.7,0.6,3,1.2,3.9c0.7,0.9,1.7,1.4,3,1.3c1.1-0.1,1.9-0.4,2.6-1
						c0.7-0.6,1.3-1.2,1.7-2c0.4-0.8,0.7-1.5,1-2.3c0.2-0.8,0.4-1.5,0.5-2c0.2-0.9,0.3-1.9,0.4-3.1c0.1-1.2,0.2-2.5,0.2-3.9
						c0-1.4,0-2.8,0-4.3c0-1.5,0-2.9,0-4.2c0-1.3,0-2.5,0-3.5c0-1.1,0-1.9,0-2.4c0-0.2,0.1-0.4,0.3-0.5c0.2-0.1,0.4-0.2,0.7-0.2
						c0.3,0,0.5,0,0.8,0.1c0.2,0.1,0.4,0.3,0.5,0.6c0,0.1,0.1,0.6,0.1,1.5c0,0.9,0.1,2,0.1,3.4c0,1.4,0,2.9,0,4.7c0,1.7,0,3.5,0,5.4
						c0,1.8,0,3.7,0,5.5c0,1.8,0,3.4,0,4.9c0,1.5,0,2.8-0.1,3.8C72.1,58.8,72,59.5,72,59.9z"/>
				</g>
			</g>
			<g>
				<g>
					<path class="st4" d="M76.2,28.7c0.1-0.1,0.2-0.2,0.4-0.4c0.2-0.2,0.5-0.3,0.7-0.3c0.3-0.1,0.5,0,0.8,0c0.2,0.1,0.4,0.3,0.5,0.7
						c0,0.2,0,0.7,0,1.6c0,0.9-0.1,1.9-0.1,3.3c0,1.3-0.1,2.8-0.2,4.4c-0.1,1.6-0.2,3.2-0.3,4.9c-0.1,1.7-0.2,3.3-0.2,4.9
						c-0.1,1.6-0.1,3-0.2,4.3c0,1.3,0,2.3,0,3.1c0,0.8,0.1,1.3,0.2,1.4c0.1,0.2,0.4,0.2,0.9,0.2c0.5,0,1,0,1.6-0.1
						c0.6,0,1.3-0.1,2-0.2c0.7-0.1,1.3-0.1,1.9-0.2c0.6,0,1.1,0,1.5,0c0.4,0,0.6,0.2,0.6,0.4c0.1,0.6,0.1,1,0.1,1.4
						c0,0.3-0.2,0.5-0.5,0.5c-0.1,0-0.4,0-1,0.1c-0.5,0.1-1.1,0.1-1.8,0.2c-0.7,0.1-1.5,0.2-2.3,0.3c-0.8,0.1-1.6,0.2-2.3,0.2
						c-0.7,0-1.3,0.1-1.8,0.1c-0.5,0-0.8-0.1-0.8-0.2c-0.1-0.1-0.1-0.6-0.1-1.5c0-0.9,0-2.1,0-3.5c0-1.4,0-3,0-4.8
						c0-1.8,0-3.6,0.1-5.5c0-1.9,0.1-3.7,0.1-5.5c0-1.8,0.1-3.4,0.1-4.8c0-1.4,0.1-2.6,0.1-3.4C76.1,29.2,76.2,28.8,76.2,28.7z"/>
				</g>
			</g>
		</g>
	</g>
	<g>
		<g>
			<path class="st4" d="M9.6,65c0.3-0.7,0.6-1.1,0.8-1.2c0.2-0.1,0.5,0,0.8,0.3c0.1,0.1,0.2,0.5,0.5,1.3c0.3,0.8,0.6,1.8,1,3
				c0.4,1.2,0.8,2.6,1.3,4.2c0.5,1.5,1,3.1,1.5,4.7c0.5,1.6,1,3.2,1.5,4.7c0.5,1.5,0.9,2.9,1.3,4.1c0.4,1.2,0.7,2.2,1,2.9
				c0.3,0.7,0.4,1.1,0.5,1.1c0.1,0,0.2-0.4,0.5-1.1c0.3-0.7,0.6-1.7,1-2.9c0.4-1.2,0.8-2.6,1.3-4.2c0.5-1.6,1-3.2,1.5-4.8
				c0.5-1.6,1-3.2,1.5-4.8s0.9-2.9,1.4-4.2c0.4-1.2,0.8-2.2,1.1-2.9c0.3-0.7,0.5-1.1,0.7-1.1c0.3,0,0.5,0,0.7,0c0.1,0,0.3,0,0.3,0
				c0.1,0,0.1,0.1,0.2,0.2c0.1,0.1,0.2,0.3,0.3,0.6c0.1,0.1,0,0.7-0.2,1.6c-0.2,0.9-0.5,2.1-0.9,3.6c-0.4,1.5-0.9,3.1-1.5,4.9
				c-0.6,1.8-1.1,3.6-1.8,5.5c-0.6,1.9-1.2,3.7-1.8,5.4c-0.6,1.8-1.2,3.4-1.8,4.7c-0.5,1.4-1,2.5-1.5,3.3c-0.4,0.8-0.8,1.3-1,1.3
				c-0.2,0-0.5-0.4-0.9-1.2c-0.4-0.8-0.9-2-1.4-3.3c-0.5-1.4-1.1-3-1.7-4.8c-0.6-1.8-1.2-3.6-1.8-5.5c-0.6-1.9-1.2-3.7-1.7-5.6
				c-0.5-1.8-1-3.5-1.5-4.9c-0.4-1.5-0.7-2.7-1-3.6C9.6,65.6,9.5,65.1,9.6,65z"/>
			<path class="st4" d="M30.2,85.8c0-0.8,0-1.9,0-3.2c0-1.3,0-2.7,0-4.1c0-1.5,0.1-3,0.1-4.5c0.1-1.5,0.2-2.9,0.3-4.3
				c0.1-1.3,0.3-2.5,0.6-3.4c0.2-1,0.5-1.7,0.9-2.1c0.7-0.8,1.6-1.2,2.5-1.3c0.9,0,1.8,0.2,2.7,0.6c0.9,0.5,1.7,1.1,2.5,1.8
				c0.8,0.8,1.4,1.5,1.9,2.3c0.8,1.4,1.5,3.1,1.9,4.9c0.4,1.8,0.7,3.6,0.8,5.3c0.1,1.7,0.1,3.3-0.1,4.7c-0.2,1.4-0.4,2.4-0.8,3
				c-0.3,0.4-0.7,0.7-1.3,0.9c-0.6,0.2-1.3,0.3-2,0.4c-0.7,0.1-1.5,0.1-2.4,0.1c-0.8,0-1.6,0-2.3,0c-0.7,0-1.3,0-1.8,0
				c-0.5,0-0.8,0.1-0.9,0.3c-0.2,0.2-0.2,0.6-0.2,1.2c0,0.6,0.1,1.1,0.4,1.8c0.2,0.6,0.6,1.2,1.1,1.8c0.5,0.6,1.2,1,2,1.2
				c0.6,0.2,1.2,0.2,1.9,0.2c0.7,0,1.3-0.1,1.9-0.2c0.6-0.1,1.1-0.3,1.6-0.6c0.4-0.3,0.7-0.6,0.9-0.9c0.1-0.3,0.4-0.5,0.7-0.4
				c0.3,0.1,0.6,0.2,0.9,0.5c0.3,0.2,0.5,0.5,0.6,0.9c0.1,0.3,0,0.6-0.2,0.9c-0.3,0.3-0.8,0.6-1.3,1c-0.6,0.4-1.2,0.7-2,1.1
				c-0.8,0.3-1.6,0.5-2.6,0.6c-1,0.1-2,0-3.1-0.3c-1.2-0.3-2.1-0.8-2.8-1.5c-0.7-0.7-1.2-1.4-1.5-2.3c-0.3-0.9-0.6-1.9-0.7-3
				C30.3,88.2,30.2,87.1,30.2,85.8z M34,66.4c-0.3,0.4-0.6,1.1-0.8,2.1c-0.2,1-0.4,2.2-0.5,3.5c-0.1,1.3-0.2,2.7-0.3,4.2
				c-0.1,1.5-0.1,2.8-0.1,4c0,1.2,0,2.2,0.1,3c0.1,0.8,0.2,1.2,0.3,1.2c0.1,0,0.4,0.1,0.9,0.1c0.5,0,1.1,0,1.7,0
				c0.7,0,1.4,0,2.1-0.1c0.7,0,1.4-0.1,2.1-0.2c0.6-0.1,1.2-0.2,1.6-0.3c0.4-0.1,0.7-0.3,0.7-0.4c0.5-3,0.5-5.7,0.2-8.1
				c-0.3-2.4-0.9-4.4-1.8-6c-0.5-0.9-1-1.6-1.6-2.2c-0.6-0.6-1.1-1-1.7-1.3c-0.6-0.3-1.1-0.4-1.6-0.3C34.9,65.7,34.4,66,34,66.4z"/>
			<path class="st4" d="M48.1,64.6c0-0.3,0-0.5,0.1-0.7c0.1-0.2,0.3-0.3,0.5-0.4c0.2-0.1,0.4-0.1,0.7-0.2c0.2,0,0.5-0.1,0.8-0.1
				c0.2,0,0.6-0.1,1.2-0.1c0.7,0,1.5,0,2.4,0.1c0.9,0.1,1.9,0.3,2.9,0.7c1,0.4,2,0.9,2.8,1.7c0.8,0.8,1.5,1.9,2,3.2
				c0.5,1.3,0.7,3,0.7,5.1c-0.1,2.3-0.4,4.2-0.9,5.7c-0.5,1.5-1.1,2.7-1.9,3.7c-0.8,0.9-1.7,1.7-2.6,2.1c-1,0.5-1.9,0.8-2.9,1
				c-0.2,0.1-0.3,0.1-0.3,0.2c0,0.1,0.1,0.1,0.3,0.2c1.9,1,3.5,1.9,5,2.6c1.4,0.7,2.3,1.1,2.5,1.3c0.2,0.2,0.3,0.4,0.3,0.8
				c0,0.3-0.1,0.7-0.3,1c-0.2,0.3-0.4,0.6-0.7,0.7c-0.3,0.2-0.6,0.2-0.9,0.1c-0.2-0.1-0.6-0.3-1.2-0.7c-0.6-0.4-1.4-0.9-2.2-1.5
				c-0.8-0.6-1.8-1.2-2.7-1.9c-1-0.7-1.9-1.3-2.7-1.9c-0.2-0.2-0.3-0.2-0.3-0.2c-0.1,0-0.1,0.1-0.1,0.1c-0.1,0.1-0.2,0.6-0.2,1.4
				c0,0.8-0.1,1.7-0.1,2.7c0,1-0.1,1.9-0.1,2.8c0,0.9-0.1,1.4-0.2,1.6c-0.2,0.4-0.5,0.7-0.9,0.8c-0.4,0.1-0.7-0.1-0.9-0.4
				c-0.1-0.2-0.2-0.6-0.2-1.2c0-0.6-0.1-1.5-0.1-2.8c0-1.2,0-2.8,0-4.7c0-1.9,0.1-4.3,0.1-7.1c0-1.8,0.1-3.5,0.1-5.2
				c0-1.7,0-3.3,0-4.7c0-1.4,0-2.7,0-3.7C48.2,65.5,48.1,64.9,48.1,64.6z M50.1,66.9c0,0.1,0,0.6,0,1.4c0,0.8,0,1.8,0,3
				c0,1.2,0,2.4,0,3.8c0,1.4,0,2.6,0.1,3.8c0,1.2,0.1,2.1,0.1,2.9c0,0.8,0,1.2,0,1.3c0,0.1,0,0.2,0,0.4c0,0.2,0,0.3,0.1,0.4
				c0,0.1,0.1,0.2,0.3,0.3c0.1,0.1,0.3,0.1,0.6,0.1c0.2,0,0.5,0,1-0.1c0.5-0.1,1.1-0.2,1.7-0.4c0.6-0.2,1.3-0.5,2-0.9
				c0.7-0.4,1.4-1,2-1.7c0.6-0.7,1.1-1.7,1.5-2.8c0.4-1.1,0.6-2.5,0.6-4.1c0-1.6-0.2-3-0.5-4c-0.4-1-0.8-1.8-1.4-2.4
				c-0.6-0.6-1.3-1-2-1.3c-0.7-0.3-1.4-0.4-2.1-0.5c-0.7-0.1-1.3-0.1-1.8,0s-0.9,0.1-1.1,0.1c-0.7,0-1,0.1-1.1,0.2
				C50.1,66.5,50.1,66.7,50.1,66.9z"/>
			<path class="st4" d="M78.9,94.9c0,0.3,0,0.5-0.1,0.7c-0.1,0.2-0.3,0.3-0.5,0.4c-0.2,0.1-0.4,0.1-0.7,0.2c-0.3,0-0.5,0.1-0.7,0.1
				c-0.2,0-0.6,0.1-1.2,0.1c-0.7,0-1.5-0.1-2.4-0.2c-0.9-0.2-1.9-0.5-2.9-1c-1-0.5-2-1.1-2.8-2c-0.8-0.9-1.5-2-2-3.4
				c-0.5-1.4-0.8-3.1-0.7-5.2c0.1-2.6,0.5-4.7,1.1-6.3c0.6-1.6,1.4-2.9,2.3-3.8c0.9-0.9,1.9-1.5,3-1.9c1.1-0.4,2.2-0.6,3.3-0.7
				c0.6-0.1,1-0.1,1.3-0.2c0.3,0,0.6-0.2,0.7-0.4c0.1-0.1,0.2-0.5,0.2-1.2c0-0.7,0.1-1.5,0.1-2.4s0.1-1.7,0.1-2.5
				c0-0.8,0.1-1.3,0.2-1.5c0.2-0.4,0.5-0.7,0.9-0.8c0.4-0.1,0.7,0.1,0.9,0.4c0.1,0.2,0.2,0.6,0.2,1.2c0,0.6,0.1,1.5,0.1,2.8
				c0,1.2,0,2.8,0,4.8c0,1.9-0.1,4.3-0.1,7.1c-0.1,1.8-0.1,3.5-0.1,5.2c0,1.7,0,3.3,0,4.7c0,1.4,0,2.7,0,3.7
				C78.9,93.9,78.9,94.6,78.9,94.9z M76.9,92.5c0-0.1,0-0.6,0-1.4c0-0.9,0-1.9,0-3.2c0-1.3,0-2.6,0-4c0-1.4,0-2.8-0.1-4
				c0-1.2-0.1-2.3-0.1-3.1c0-0.8,0-1.3,0-1.4c0-0.2-0.1-0.5-0.1-0.8c0-0.3-0.3-0.5-0.9-0.4c-0.2,0-0.5,0.1-1,0.1
				c-0.5,0-1.1,0.2-1.7,0.4c-0.6,0.2-1.3,0.5-2,0.9c-0.7,0.4-1.4,1-2,1.7c-0.6,0.7-1.1,1.7-1.5,2.8c-0.4,1.1-0.6,2.5-0.6,4.1
				c0,1.6,0.1,3,0.5,4.1c0.4,1.1,0.9,1.9,1.5,2.6c0.6,0.7,1.3,1.2,2,1.5c0.7,0.3,1.4,0.6,2.1,0.7c0.7,0.1,1.3,0.2,1.8,0.2
				c0.5,0,0.9,0,1.1,0c0.7,0,1-0.1,1.1-0.2C76.9,93,76.9,92.8,76.9,92.5z"/>
			<path class="st4" d="M82,85.8c0-0.8,0-1.9,0-3.2c0-1.3,0-2.7,0-4.1c0-1.5,0.1-3,0.1-4.5c0.1-1.5,0.2-2.9,0.3-4.3
				c0.1-1.3,0.3-2.5,0.6-3.4c0.2-1,0.5-1.7,0.9-2.1c0.7-0.8,1.6-1.2,2.5-1.3c0.9,0,1.8,0.2,2.7,0.6c0.9,0.5,1.7,1.1,2.5,1.8
				c0.8,0.8,1.4,1.5,1.9,2.3c0.8,1.4,1.5,3.1,1.9,4.9c0.4,1.8,0.7,3.6,0.8,5.3c0.1,1.7,0.1,3.3-0.1,4.7c-0.2,1.4-0.4,2.4-0.8,3
				c-0.3,0.4-0.7,0.7-1.3,0.9c-0.6,0.2-1.3,0.3-2,0.4c-0.8,0.1-1.5,0.1-2.4,0.1c-0.8,0-1.6,0-2.3,0c-0.7,0-1.3,0-1.8,0
				c-0.5,0-0.8,0.1-0.9,0.3c-0.2,0.2-0.2,0.6-0.2,1.2c0,0.6,0.1,1.1,0.4,1.8c0.2,0.6,0.6,1.2,1.1,1.8c0.5,0.6,1.2,1,2,1.2
				c0.6,0.2,1.2,0.2,1.9,0.2c0.7,0,1.3-0.1,1.9-0.2c0.6-0.1,1.1-0.3,1.6-0.6c0.4-0.3,0.7-0.6,0.9-0.9c0.1-0.3,0.4-0.5,0.7-0.4
				c0.3,0.1,0.6,0.2,0.9,0.5c0.3,0.2,0.5,0.5,0.6,0.9c0.1,0.3,0,0.6-0.2,0.9c-0.3,0.3-0.8,0.6-1.3,1c-0.6,0.4-1.2,0.7-2,1.1
				c-0.8,0.3-1.6,0.5-2.6,0.6c-1,0.1-2,0-3.1-0.3c-1.2-0.3-2.1-0.8-2.8-1.5c-0.7-0.7-1.2-1.4-1.5-2.3c-0.3-0.9-0.6-1.9-0.7-3
				C82.1,88.2,82,87.1,82,85.8z M85.8,66.4c-0.3,0.4-0.6,1.1-0.8,2.1c-0.2,1-0.4,2.2-0.5,3.5c-0.1,1.3-0.2,2.7-0.3,4.2
				c-0.1,1.5-0.1,2.8-0.1,4c0,1.2,0,2.2,0.1,3c0.1,0.8,0.2,1.2,0.3,1.2c0.1,0,0.4,0.1,0.9,0.1c0.5,0,1.1,0,1.7,0
				c0.7,0,1.4,0,2.1-0.1c0.7,0,1.4-0.1,2.1-0.2c0.6-0.1,1.2-0.2,1.6-0.3c0.4-0.1,0.7-0.3,0.7-0.4c0.5-3,0.5-5.7,0.2-8.1
				c-0.3-2.4-0.9-4.4-1.8-6c-0.5-0.9-1-1.6-1.6-2.2c-0.6-0.6-1.1-1-1.7-1.3c-0.6-0.3-1.1-0.4-1.6-0.3C86.7,65.7,86.2,66,85.8,66.4z"
				/>
		</g>
	</g>
</g>
</svg>
